<?xml version="1.0" encoding="UTF-8"?>
<svg width="165px" height="75px" viewBox="0 0 165 75" version="1.1" xmlns="http://www.w3.org/2000/svg" xmlns:xlink="http://www.w3.org/1999/xlink">
    <title>Logo/ADLC</title>
    <defs>
        <polygon id="path-1" points="0 0 164.980226 0 164.980226 37.6267656 0 37.6267656"></polygon>
        <polygon id="path-3" points="5.65896536e-15 -3.78192101e-15 13.9915254 -3.78192101e-15 13.9915254 14.1628865 5.65896536e-15 14.1628865"></polygon>
    </defs>
    <g id="Symbols" stroke="none" stroke-width="1" fill="none" fill-rule="evenodd">
        <g id="NAV/Desktop/Footer" transform="translate(-130.000000, -33.000000)">
            <g id="Group-9" transform="translate(130.000000, 33.493867)">
                <g id="Group-3">
                    <mask id="mask-2" fill="white">
                        <use xlink:href="#path-1"></use>
                    </mask>
                    <g id="Clip-2"></g>
                    <path d="M72.9858757,29.7373556 C72.9858757,27.7352691 72.0338983,26.6620148 69.9858757,26.6620148 C68.2768362,26.6620148 66.4463277,28.188358 66.0423729,28.5451655 L65.9435028,26.6875011 L62.4039548,26.877232 L62.4039548,27.2595258 L63.9745763,27.6673058 L63.9745763,36.6271383 L62.4039548,37.0066002 L62.4039548,37.3888939 L67.6836158,37.3888939 L67.6836158,37.0066002 L66.0649718,36.6271383 L66.0903955,29.2616122 C66.3983051,29.0237406 67.9689266,27.998627 69.2768362,27.998627 C70.5819209,27.998627 70.8700565,28.8793185 70.8700565,30.0488542 L70.8700565,36.6271383 L69.3446328,37.0066002 L69.3446328,37.3888939 L74.5056497,37.3888939 L74.5056497,37.0066002 L72.9858757,36.6271383 L72.9858757,29.7373556 Z M14.0225989,23.3686251 C15.0903955,23.3686251 15.6497175,24.7109009 15.740113,25.815305 L11.9576271,25.815305 C12.2485876,24.257812 12.9350282,23.3686251 14.0225989,23.3686251 L14.0225989,23.3686251 Z M14.3841808,30.2782304 C12.6468927,30.2782304 11.5423729,28.6669331 11.8135593,26.3788343 L17.3163842,26.3788343 C17.3163842,24.475861 16.3022599,22.8249184 14.0225989,22.8249184 C11.779661,22.8249184 10.0932203,24.9487725 10.0932203,26.9961679 C10.0932203,29.5362974 11.5621469,31.1702491 14.0225989,31.1702491 C15.7768362,31.1702491 16.7175141,30.4622978 17.460452,29.9016003 L17.1525424,29.4456796 C16.7740113,29.6807195 15.9774011,30.2782304 14.3841808,30.2782304 L14.3841808,30.2782304 Z M55.0988701,36.9358051 C53.0762712,36.9358051 51.9124294,34.8657553 51.9124294,32.147222 C51.9124294,29.4060343 53.0762712,27.3529754 55.0988701,27.3529754 C57.0960452,27.3529754 58.2627119,29.4286888 58.2627119,32.147222 C58.2627119,34.8657553 57.0960452,36.9358051 55.0988701,36.9358051 L55.0988701,36.9358051 Z M55.0988701,26.6620148 C52.0564972,26.6620148 49.6073446,29.0945357 49.6073446,32.147222 C49.6073446,35.1715902 52.0564972,37.6267656 55.0988701,37.6267656 C58.1186441,37.6267656 60.5677966,35.1715902 60.5677966,32.147222 C60.5677966,29.0945357 58.1186441,26.6620148 55.0988701,26.6620148 L55.0988701,26.6620148 Z M44.8728814,36.4600617 C42.5423729,36.4600617 41.4689266,34.5287704 41.4689266,32.147222 C41.4689266,29.3550618 42.7316384,27.3784616 44.4180791,27.3784616 C45.6779661,27.3784616 46.6553672,28.0694221 47.0310734,28.3072938 L47.2711864,29.9072639 L48.1016949,29.9072639 L48.3418079,27.2595258 C47.819209,27.0924493 46.3926554,26.6620148 44.4435028,26.6620148 C41.4943503,26.6620148 39.2824859,29.0945357 39.2824859,32.147222 C39.2824859,35.5283977 41.1610169,37.6267656 44.6073446,37.6267656 C47.0310734,37.6267656 48.2937853,36.411921 48.8644068,35.9588322 L48.440678,35.3613212 C48.0310734,35.6501654 47.0141243,36.4600617 44.8728814,36.4600617 L44.8728814,36.4600617 Z M25.6440678,18.1609348 L22.819209,18.3988065 L22.819209,18.6706598 L24.0310734,18.9793266 L24.0310734,30.4056616 L22.819209,30.7001694 L22.819209,30.9861818 L26.8389831,30.9861818 L26.8389831,30.7001694 L25.6440678,30.4056616 L25.6440678,18.1609348 Z M32.7090395,29.6637286 C32.2570621,29.9893862 31.8079096,30.298053 31.0282486,30.298053 C29.9774011,30.298053 29.6186441,29.6977103 29.6186441,28.9019729 C29.6186441,28.1034038 30.180791,27.4492567 31.6242938,27.2680212 L32.7090395,27.1802352 L32.7090395,29.6637286 Z M34.2881356,25.0563811 C34.2881356,23.8217139 33.6158192,22.8249184 31.8079096,22.8249184 C30.3220339,22.8249184 29.220339,23.3516342 28.6949153,23.6433102 L28.8587571,25.3820388 L29.6355932,25.3820388 L29.799435,23.8047231 C29.9774011,23.7509188 30.3587571,23.5470288 31.319209,23.5470288 C32.6384181,23.5470288 32.7090395,24.5296653 32.7090395,25.2376167 L32.7090395,26.6336968 L31.0282486,26.6875011 C28.9661017,26.761128 28.0451977,27.8853548 28.0451977,29.046395 C28.0451977,30.2782304 28.8587571,31.1702491 30.4322034,31.1702491 C31.4096045,31.1702491 32.2062147,30.6237107 32.7316384,30.2272579 L32.8389831,31.1702491 L35.4632768,30.9861818 L35.4632768,30.7001694 L34.2881356,30.4056616 L34.2881356,25.0563811 Z M81.6864407,36.4600617 C79.3587571,36.4600617 78.2881356,34.5287704 78.2881356,32.147222 C78.2881356,29.3550618 79.5451977,27.3784616 81.2344633,27.3784616 C82.4943503,27.3784616 83.4689266,28.0694221 83.8502825,28.3072938 L84.0903955,29.9072639 L84.920904,29.9072639 L85.1581921,27.2595258 C84.6355932,27.0924493 83.2062147,26.6620148 81.259887,26.6620148 C78.3107345,26.6620148 76.1016949,29.0945357 76.1016949,32.147222 C76.1016949,35.5283977 77.980226,37.6267656 81.4237288,37.6267656 C83.8502825,37.6267656 85.1101695,36.411921 85.680791,35.9588322 L85.2542373,35.3613212 C84.8474576,35.6501654 83.8248588,36.4600617 81.6864407,36.4600617 L81.6864407,36.4600617 Z M149.497175,36.4600617 C147.169492,36.4600617 146.09887,34.5287704 146.09887,32.147222 C146.09887,29.3550618 147.355932,27.3784616 149.048023,27.3784616 C150.305085,27.3784616 151.282486,28.0694221 151.661017,28.3072938 L151.90113,29.9072639 L152.728814,29.9072639 L152.968927,27.2595258 C152.449153,27.0924493 151.019774,26.6620148 149.070621,26.6620148 C146.121469,26.6620148 143.909605,29.0945357 143.909605,32.147222 C143.909605,35.5283977 145.788136,37.6267656 149.234463,37.6267656 C151.661017,37.6267656 152.923729,36.411921 153.491525,35.9588322 L153.064972,35.3613212 C152.663842,35.6501654 151.638418,36.4600617 149.497175,36.4600617 L149.497175,36.4600617 Z M160.466102,27.3784616 C161.870056,27.3784616 162.607345,29.1426764 162.723164,30.5953926 L157.754237,30.5953926 C158.135593,28.5451655 159.036723,27.3784616 160.466102,27.3784616 L160.466102,27.3784616 Z M164.579096,35.3613212 C164.079096,35.6728198 163.031073,36.4600617 160.940678,36.4600617 C158.655367,36.4600617 157.20339,34.3362076 157.564972,31.3344938 L164.793785,31.3344938 C164.793785,28.8340096 163.460452,26.6620148 160.466102,26.6620148 C157.516949,26.6620148 155.305085,29.4513432 155.305085,32.147222 C155.305085,35.4830889 157.231638,37.6267656 160.466102,37.6267656 C162.771186,37.6267656 164.008475,36.6979334 164.980226,35.9588322 L164.579096,35.3613212 Z M113.564972,29.4768295 L113.420904,26.6620148 L109.951977,26.9735134 L109.951977,27.3303209 L111.522599,27.7352691 L111.522599,36.6271383 L109.951977,37.0066002 L109.951977,37.3888939 L115.89548,37.3888939 L115.89548,36.9612913 L113.641243,36.5789976 L113.641243,30.2867258 C114.186441,29.3805481 115.016949,28.4998566 115.991525,28.4772021 C116.587571,28.4772021 116.943503,28.6159606 117.370056,28.8793185 L118.059322,27.3529754 C117.418079,26.9735134 117.132768,26.6620148 116.228814,26.6620148 C115.183616,26.6620148 114.039548,28.4262296 113.564972,29.4768295 L113.564972,29.4768295 Z M104.344633,29.4768295 L104.200565,26.6620148 L100.728814,26.9735134 L100.728814,27.3303209 L102.29661,27.7352691 L102.29661,36.6271383 L100.728814,37.0066002 L100.728814,37.3888939 L106.672316,37.3888939 L106.672316,36.9612913 L104.412429,36.5789976 L104.412429,30.2867258 C104.960452,29.3805481 105.79096,28.4998566 106.765537,28.4772021 C107.361582,28.4772021 107.720339,28.6159606 108.144068,28.8793185 L108.836158,27.3529754 C108.194915,26.9735134 107.909605,26.6620148 107.00565,26.6620148 C105.960452,26.6620148 104.822034,28.4262296 104.344633,29.4768295 L104.344633,29.4768295 Z M97.5508475,26.6620148 L93.9378531,27.0443086 L93.9378531,27.4011161 L95.4350282,27.8060642 L95.4350282,35.0045137 C94.3644068,35.5991929 93.3672316,36.1995356 92.440678,36.1995356 C91.4152542,36.1995356 90.680791,35.5991929 90.680791,34.1719629 L90.680791,26.6620148 L87.0169492,27.0216541 L87.0169492,27.4011161 L88.5649718,27.8570367 L88.5649718,34.5995655 C88.5847458,36.2221901 89.2768362,37.6267656 91.2937853,37.6267656 C92.7966102,37.6267656 94.460452,36.4600617 95.4830508,35.7181287 L95.579096,37.6267656 L99.1440678,37.3888939 L99.1440678,37.0320864 L97.5508475,36.6271383 L97.5508475,26.6620148 Z M140.79661,29.7373556 C140.79661,27.7352691 139.844633,26.6620148 137.799435,26.6620148 C136.090395,26.6620148 134.257062,28.188358 133.853107,28.5451655 L133.759887,26.6875011 L130.217514,26.877232 L130.217514,27.2595258 L131.782486,27.6673058 L131.782486,36.6271383 L130.217514,37.0066002 L130.217514,37.3888939 L135.49435,37.3888939 L135.49435,37.0066002 L133.878531,36.6271383 L133.898305,29.2616122 C134.211864,29.0237406 135.779661,27.998627 137.087571,27.998627 C138.39548,27.998627 138.680791,28.8793185 138.680791,30.0488542 L138.680791,36.6271383 L137.158192,37.0066002 L137.158192,37.3888939 L142.316384,37.3888939 L142.316384,37.0066002 L140.79661,36.6271383 L140.79661,29.7373556 Z M123.861582,27.3784616 C125.262712,27.3784616 126,29.1426764 126.118644,30.5953926 L121.146893,30.5953926 C121.528249,28.5451655 122.432203,27.3784616 123.861582,27.3784616 L123.861582,27.3784616 Z M124.336158,36.4600617 C122.050847,36.4600617 120.59887,34.3362076 120.957627,31.3344938 L128.186441,31.3344938 C128.186441,28.8340096 126.855932,26.6620148 123.861582,26.6620148 C120.909605,26.6620148 118.700565,29.4513432 118.700565,32.147222 C118.700565,35.4830889 120.624294,37.6267656 123.861582,37.6267656 C126.163842,37.6267656 127.40113,36.6979334 128.378531,35.9588322 L127.971751,35.3613212 C127.471751,35.6728198 126.426554,36.4600617 124.336158,36.4600617 L124.336158,36.4600617 Z M6.13559322,29.5901017 C5.53954802,29.9157593 4.8700565,30.2442487 3.92655367,30.2442487 C3.14689266,30.2442487 1.75706215,29.6977103 1.75706215,27.1066083 C1.75706215,24.3682524 3.05649718,23.6744601 4.03672316,23.660301 C4.96045198,23.660301 5.5,23.8953409 6.13559322,24.2748028 L6.13559322,29.5901017 Z M7.74576271,18.1609348 L4.56214689,18.3988065 L4.56214689,18.7414549 L6.13559322,19.0529535 L6.13559322,23.5668514 C5.48305085,23.150576 4.65254237,22.8249184 3.67231638,22.8249184 C1.83050847,22.8249184 0,24.69391 0,27.1235991 C0,29.6637286 1.48305085,31.1702491 3.67231638,31.1702491 C4.4519774,31.1702491 5.34180791,30.807778 6.13559322,30.2782304 L6.2259887,31.1532583 L8.95762712,30.9861818 L8.95762712,30.7001694 L7.74576271,30.4056616 L7.74576271,18.1609348 Z M82.7175141,15.5160285 C80.6977401,15.5160285 79.5310734,13.4431469 79.5310734,10.7246137 C79.5310734,7.98059416 80.6977401,5.93603062 82.7175141,5.93603062 C84.7146893,5.93603062 85.8813559,8.00608041 85.8813559,10.7246137 C85.8813559,13.4431469 84.7146893,15.5160285 82.7175141,15.5160285 L82.7175141,15.5160285 Z M82.7175141,5.24507008 C79.6779661,5.24507008 77.2259887,7.67475917 77.2259887,10.7246137 C77.2259887,13.7518137 79.6779661,16.206989 82.7175141,16.206989 C85.740113,16.206989 88.1892655,13.7518137 88.1892655,10.7246137 C88.1892655,7.67475917 85.740113,5.24507008 82.7175141,5.24507008 L82.7175141,5.24507008 Z M101.838983,2.66812711 C102.531073,2.66812711 103.146893,2.05079352 103.146893,1.37965562 C103.146893,0.688695089 102.531073,0.0685296923 101.838983,0.0685296923 C101.175141,0.0685296923 100.556497,0.688695089 100.556497,1.37965562 C100.556497,2.05079352 101.175141,2.66812711 101.838983,2.66812711 L101.838983,2.66812711 Z M95.9689266,15.538683 L93.7118644,15.159221 L93.7118644,8.86694928 C94.2570621,7.96077153 95.0903955,7.07724822 96.0621469,7.05459378 C96.6581921,7.05459378 97.0169492,7.19618405 97.4435028,7.45954196 L98.1299435,5.93603062 C97.4915254,5.55373688 97.2062147,5.24507008 96.3022599,5.24507008 C95.2570621,5.24507008 94.1129944,7.00645308 93.6412429,8.05705291 L93.4971751,5.24507008 L90.0254237,5.55373688 L90.0254237,5.91054437 L91.5960452,6.31549255 L91.5960452,15.2073617 L90.0254237,15.5868236 L90.0254237,15.9691174 L95.9689266,15.9691174 L95.9689266,15.538683 Z M104.525424,15.5868236 L102.935028,15.2073617 L102.935028,5.24507008 L99.2457627,5.55373688 L99.2457627,5.91054437 L100.819209,6.31549255 L100.819209,15.2073617 L99.2457627,15.5868236 L99.2457627,15.9691174 L104.525424,15.9691174 L104.525424,15.5868236 Z M122.522599,2.02530727 L121.663842,0.714181339 L118.313559,3.40722834 L118.816384,4.05287998 L122.522599,2.02530727 Z M107.649718,13.2987248 C107.649718,15.3234657 107.980226,16.206989 110.19209,16.206989 C111.240113,16.206989 112.310734,15.9691174 113.019774,15.756732 L112.949153,15.2809887 C112.355932,15.2809887 111.666667,15.2300162 111.073446,15.1365666 C109.90678,14.9440038 109.765537,14.5390556 109.765537,13.0863394 L109.765537,6.31549255 L112.451977,5.91054437 L112.451977,5.48294174 L109.785311,5.48294174 L109.689266,1.16727021 L109.096045,1.16727021 L107.672316,5.48294174 L105.389831,5.48294174 L105.389831,5.91054437 L107.649718,6.31549255 L107.649718,13.2987248 Z M118.858757,5.95868506 C120.262712,5.95868506 121,7.72289987 121.121469,9.17561607 L116.152542,9.17561607 C116.531073,7.12822072 117.435028,5.95868506 118.858757,5.95868506 L118.858757,5.95868506 Z M118.858757,16.206989 C121.169492,16.206989 122.403955,15.2809887 123.381356,14.5390556 L122.974576,13.9443765 C122.474576,14.2530433 121.432203,15.0402852 119.336158,15.0402852 C117.056497,15.0402852 115.60452,12.9192629 115.963277,9.9147173 L123.189266,9.9147173 C123.189266,7.41140127 121.858757,5.24507008 118.858757,5.24507008 C115.912429,5.24507008 113.700565,8.03156666 113.700565,10.7246137 C113.700565,14.0633123 115.629944,16.206989 118.858757,16.206989 L118.858757,16.206989 Z M47.9519774,3.00228016 L50.3276836,10.2460385 L45.3361582,10.2460385 L47.9519774,3.00228016 Z M45.9745763,15.5641692 L43.6723164,15.1818755 L45.0508475,11.0361123 L50.5903955,11.0361123 L51.8022599,15.1818755 L49.8559322,15.5641692 L49.8559322,15.9691174 L55.0367232,15.9691174 L55.0367232,15.6123099 L54.0875706,15.2300162 L49.0451977,-0.00226544437 L48.2853107,-0.00226544437 L42.4350282,15.2300162 L41.6045198,15.6123099 L41.6045198,15.9691174 L45.9745763,15.9691174 L45.9745763,15.5641692 Z M57.460452,13.179789 C57.4858757,14.8024135 58.1751412,16.206989 60.1977401,16.206989 C61.6949153,16.206989 63.3587571,15.0402852 64.3813559,14.301184 L64.4745763,16.206989 L68.0423729,15.9691174 L68.0423729,15.6123099 L66.4491525,15.2073617 L66.4491525,5.24507008 L62.8333333,5.62453202 L62.8333333,5.98133951 L64.3333333,6.38628769 L64.3333333,13.5847372 C63.2627119,14.1822481 62.2655367,14.7769273 61.3361582,14.7769273 C60.3163842,14.7769273 59.579096,14.1822481 59.579096,12.7521864 L59.579096,5.24507008 L55.9152542,5.60187757 L55.9152542,5.98133951 L57.460452,6.43442838 L57.460452,13.179789 Z M71.1723164,13.2987248 C71.1723164,15.3234657 71.5056497,16.206989 73.7175141,16.206989 C74.7627119,16.206989 75.8333333,15.9691174 76.5451977,15.756732 L76.4717514,15.2809887 C75.8785311,15.2809887 75.1892655,15.2300162 74.5932203,15.1365666 C73.4293785,14.9440038 73.2853107,14.5390556 73.2853107,13.0863394 L73.2853107,6.31549255 L75.9774011,5.91054437 L75.9774011,5.48294174 L73.3107345,5.48294174 L73.2175141,1.16727021 L72.6214689,1.16727021 L71.1949153,5.48294174 L68.9152542,5.48294174 L68.9152542,5.91054437 L71.1723164,6.31549255 L71.1723164,13.2987248 Z" id="Fill-1" fill="#1D1D1B" mask="url(#mask-2)"></path>
                </g>
                <g id="Group-6" transform="translate(75.495763, 59.636796)">
                    <mask id="mask-4" fill="white">
                        <use xlink:href="#path-3"></use>
                    </mask>
                    <g id="Clip-5"></g>
                    <path d="M13.4378531,6.70674268 C13.3644068,6.59913408 13.319209,6.47170283 13.2853107,6.34427158 C13.3248588,6.62745213 13.3446328,6.91346448 13.3446328,7.20514045 C13.3446328,7.37504877 13.3361582,7.54778891 13.3248588,7.71203362 L13.4350282,7.89893278 C13.3898305,7.95273709 13.3615819,7.87344654 13.3135593,7.84512848 L13.2966102,7.97255973 C13.3502825,7.99804598 13.3559322,8.06600931 13.4096045,8.11131819 C13.4661017,8.11131819 13.4661017,8.18211333 13.460452,8.28122652 C13.4265537,8.21326319 13.3954802,8.27556291 13.3700565,8.28405833 C13.4576271,8.31520819 13.4717514,8.4228168 13.4265537,8.55024804 C13.279661,8.62104318 13.4265537,8.81926956 13.3446328,8.97501886 C13.2627119,8.88440109 13.2062147,8.77962428 13.1920904,8.67767929 L12.8983051,8.29821736 C12.9576271,8.35768527 13.2514124,9.02315955 13.2570621,9.14209538 C13.180791,9.2525358 13.2881356,9.28934927 13.2259887,9.43093954 C13.1214689,9.68013842 13.0169492,9.93216911 12.8983051,10.0992456 C12.9180791,10.2436677 12.700565,10.4277351 12.6920904,10.6004752 C12.519774,10.793038 12.4887006,10.6372887 12.279661,10.6542795 C12.019774,11.0195824 11.8502825,11.9342556 11.440678,12.1919499 L11.420904,12.0616868 C11.4124294,12.174959 11.3389831,12.0475278 11.2853107,12.1098275 C11.4180791,12.1183229 11.2740113,12.2712404 11.2740113,12.36469 C11.0536723,12.4298215 10.9067797,12.6761886 10.799435,12.8659196 C10.6723164,13.0301643 10.3926554,13.0273325 10.1751412,13.1236139 C10.1327684,13.1094548 9.73446328,13.1349411 9.67514124,13.1745864 C9.62429379,13.3501583 9.88700565,13.3020176 9.75141243,13.4662623 C9.6299435,13.5455529 8.57909605,13.5398893 8.42937853,13.5370575 C7.98022599,13.8627151 8.25706215,13.9788191 7.71186441,14.0949231 L7.66384181,14.009969 C7.14124294,14.3073086 6.47457627,14.0779323 6.01412429,14.1090822 L6.0819209,13.9589965 C5.94632768,13.8966968 5.74858757,13.9646601 5.76553672,14.0807641 C5.6299435,14.0326234 5.39265537,14.1005868 5.33615819,13.9420056 C5.20338983,13.8683787 5.1440678,13.9589965 5.02259887,13.9420056 C4.77966102,13.8117426 4.66949153,13.7834245 4.44632768,13.732452 L4.36440678,13.718293 L4.44632768,13.732452 C4.47740113,13.7069658 5.08757062,13.5087394 5.03672316,13.486085 C4.91525424,13.5087394 4.09887006,13.4549351 4.11864407,13.6673205 C3.90112994,13.4294489 3.45762712,13.4096262 3.26836158,13.1406047 C3.26553672,13.1972408 3.19491525,13.1689228 3.14689266,13.1830818 C2.90112994,13.0726414 2.77683616,12.77247 2.55084746,12.7214975 C2.53672316,12.670525 2.65819209,12.6960112 2.57627119,12.6223843 C2.51694915,12.5968981 2.53672316,12.670525 2.45480226,12.6450387 C2.04237288,12.4553078 1.85875706,12.0078825 1.61299435,11.7105429 C1.05649718,11.2687813 0.779661017,10.5693253 0.451977401,9.99163702 C0.274011299,9.83022411 0.463276836,9.43943496 0.203389831,9.34032177 C0.223163842,9.28085385 0.367231638,9.03731858 0.446327684,9.05430941 C0.322033898,8.91838275 0.149717514,8.73148359 0.0536723164,8.49927554 C0.104519774,8.23308583 -0.0310734463,8.02070042 0.0197740113,7.74035168 C0.0367231638,7.76583793 0.511299435,8.12264542 0.550847458,8.12830903 C0.61299435,8.02070042 0.118644068,7.09470003 0.296610169,7.02956851 C0.288135593,6.97859601 0.00847457627,7.47699377 3.77264357e-15,7.50531182 C0.0169491525,6.9219599 0.0141242938,6.29046728 0.0593220339,5.67030188 C0.296610169,5.2653537 0.36440678,5.71277896 0.336158192,5.35030787 C0.305084746,5.17190412 0.564971751,5.17756773 0.502824859,5.06146371 C0.384180791,5.06429551 0.463276836,4.98500496 0.398305085,4.95668691 C0.550847458,4.72731066 0.892655367,4.61403844 0.895480226,4.38749401 C0.903954802,4.14112693 0.878531073,4.02502291 0.810734463,3.74467417 C1.46045198,2.52416601 2.38135593,1.4310891 3.63276836,0.799596481 C4.85310734,0.193590112 6.23163842,-0.177376404 7.61016949,0.0859815039 C7.92090395,0.272880665 7.61864407,0.462611631 7.98305085,0.437125382 C8.00564972,0.357834829 8.93220339,0.561724822 8.99152542,0.454116215 C9.46610169,0.649510792 9.53954802,0.468275242 10,0.728801345 C9.92090395,0.703315096 9.83898305,0.774110232 9.93220339,0.813755509 L10.0564972,0.791101065 C10.1214689,0.844905369 10.2146893,0.825082731 10.1751412,0.754287594 C11.4717514,1.23003091 12.2485876,2.42222101 12.9632768,3.4529982 C13.0677966,3.74467417 13.3163842,4.10148165 13.4943503,4.39032581 C13.7090395,5.38995314 13.8361582,6.60196588 13.9915254,7.58177057 C13.9915254,7.58177057 13.5480226,7.0777092 13.4378531,6.70674268 L13.4378531,6.70674268 Z M13.0367232,5.34181245 C13.1384181,5.29367176 13.2288136,5.2143812 13.1101695,5.02748204 C12.9915254,4.89721899 12.8728814,4.75279691 12.759887,4.59421581 L13.0367232,5.34181245 Z M11.6638418,2.28346255 C11.0254237,2.32877143 10.8954802,1.59533382 10.3050847,1.39710743 L9.8079096,1.00631828 L10.200565,1.43675271 C11.4237288,2.43638004 12.539548,3.56343862 13.3531073,4.89155538 C13.1751412,4.44696192 13.0028249,4.00236846 12.8305085,3.58326125 C12.8502825,3.3453896 12.3954802,3.2972489 12.2570621,3.06220905 C12.2175141,3.0367228 12.0282486,2.63743823 11.8474576,2.64876545 C11.8305085,2.51283879 11.9519774,2.41089379 11.9237288,2.24664907 L11.6638418,2.28346255 Z M3.33898305,1.93231867 L3.04519774,1.92099145 C2.98587571,1.78223298 3.27118644,1.79922381 3.10169492,1.70294243 C2.98305085,1.81904645 2.70056497,2.23249005 2.55367232,2.28346255 C2.52824859,2.38540754 2.51129944,2.50151157 2.49717514,2.61761559 C2.77118644,2.37974393 3.05084746,2.15319949 3.33898305,1.93231867 L3.33898305,1.93231867 Z" id="Fill-4" fill="#AA0933" mask="url(#mask-4)"></path>
                </g>
                <path d="M118.613277,55.2745773 C118.257345,55.351036 118.703672,55.3821859 118.839266,55.4416538 C118.884463,55.3906813 118.658475,55.3283816 118.613277,55.2745773 L118.613277,55.2745773 Z M119.601977,55.4303266 C119.805367,55.4699718 119.929661,55.4359902 120.017232,55.3963449 C119.262994,55.3425406 120.234746,55.4105039 119.601977,55.4303266 L119.601977,55.4303266 Z M101.14435,48.217718 C102.133051,48.1950636 103.200847,47.8269289 104.096328,47.7617974 C104.251695,47.8014426 105.407062,47.9288739 105.308192,47.9656873 C107.311017,47.7731246 107.887288,48.2233816 109.35904,47.8410879 L110.093503,47.6371979 C110.562429,47.7023294 110.890113,47.7561337 111.25452,47.8156017 C111.64435,47.707993 112.666949,47.9062194 112.898588,47.7617974 C113.110452,47.8297607 113.726271,47.8439197 113.734746,47.8920604 C114.65565,47.9288739 115.291243,47.7844518 116.161299,47.8410879 L117.398588,47.9147148 C119.141525,48.0308189 118.95226,48.2347089 120.890113,48.305504 L101.14435,48.217718 Z M70.3590395,47.475785 L70.1387006,47.5720664 C71.7403955,48.1809046 69.5144068,47.57773 69.4635593,47.5890572 L64.0454802,47.8269289 C64.3279661,47.7702928 67.3336158,47.257736 67.6076271,47.2152589 C67.9663842,47.2464088 69.169774,47.387999 69.570904,47.3823354 C70.2855932,47.4191489 70.8053672,47.3143721 70.9240113,47.286054 C70.8646893,47.3002131 70.689548,47.3540174 70.3590395,47.475785 L70.3590395,47.475785 Z M121.963559,50.3500675 L122.034181,48.2828496 L122.135876,47.7533019 C121.779944,47.489944 122.698023,48.3564765 121.087853,47.1586228 L121.003107,47.155791 L120.827966,47.1501274 L120.477684,47.1388001 L119.065254,47.0736686 C117.777119,47.0934913 116.090678,47.1303047 114.907062,47.0765004 C109.915537,47.0849958 106.198023,46.8669468 101.099153,46.9462374 C101.370339,46.9858827 100.935311,47.2945494 100.675424,47.3115403 L99.5765537,47.0453506 L98.0257062,47.3455219 C97.6415254,47.3511856 98.8533898,46.9688918 99.1725989,46.9603964 C97.1471751,46.951901 95.330791,46.9745554 93.3618644,46.9462374 C93.229096,47.0566778 92.330791,46.9462374 92.2629944,47.0623414 C92.1725989,47.039687 92.2573446,47.0340233 92.3138418,47.0142007 C90.9409605,47.0623414 90.8477401,47.068005 89.5991525,46.9179193 C84.2658192,46.8046471 79.130226,46.864115 73.8759887,46.8074022 C68.5652542,46.8046471 63.3449153,46.8811059 57.8985876,46.8896013 C57.0652542,47.0623414 55.9211864,46.9773872 54.929661,47.1246411 L54.9946328,47.0708368 C54.1528249,47.1444638 53.9381356,47.0510142 52.8731638,46.980219 C52.8590395,47.0425188 52.4607345,46.9943781 52.6132768,47.0991549 C52.2432203,47.184109 51.9466102,46.9490692 51.4127119,46.9943781 C51.3929379,46.9603964 51.4268362,47.0566778 51.3138418,47.0255279 C49.9353107,47.1444638 51.5765537,46.9688918 49.830791,46.8612832 L46.1556497,46.9207511 L44.3364407,46.937742 L43.8844633,46.9320783 L43.7884181,46.9320783 L43.1132768,47.4389715 L43.110452,47.5239257 L43.1076271,47.6881704 L43.0822034,48.3168312 C43.0935028,48.2290453 43.3872881,48.1837364 43.3872881,48.3394857 C43.1612994,48.5065622 43.5398305,49.2683179 43.4466102,49.5741528 C43.3985876,49.5486666 43.090678,49.0842505 43.070904,49.00496 C42.9720339,49.7865383 43.1048023,50.4463489 43.0031073,51.1826184 C42.9946328,51.128814 42.9861582,51.0750097 42.9748588,51.0212054 C42.969209,51.0891688 42.7375706,51.4233218 42.7601695,51.4827897 C42.8533898,52.1935729 42.8872881,52.7231205 43.0002825,53.2016957 C42.909887,53.0884234 42.929661,53.5188579 42.8844633,53.6717754 C43.0172316,53.9294697 42.9918079,54.2749499 42.9550847,54.637421 L42.8985876,54.6629073 L43.3166667,54.7846749 C44.1584746,54.6827299 45.0257062,54.419372 45.7686441,54.3655677 C45.929661,54.405213 47.0850282,54.5326442 46.9861582,54.5722895 C48.9889831,54.3740631 49.5652542,54.827152 51.0341808,54.4448583 L51.7658192,54.2409683 C52.2375706,54.3060998 52.5680791,54.3570723 52.929661,54.419372 C53.3223164,54.3145952 54.3420904,54.5099898 54.5765537,54.3655677 C54.7884181,54.4363628 55.4042373,54.4476901 55.409887,54.4929989 C56.330791,54.5326442 56.9720339,54.3882221 57.8392655,54.4448583 L59.0793785,54.521317 C60.8166667,54.6317574 60.6330508,54.8384792 62.5680791,54.9064425 L43.1387006,54.929097 L43.7319209,55.5181125 L43.8053672,55.5209443 L43.8957627,55.5237761 L44.0793785,55.5266079 C44.3194915,55.5322715 44.5596045,55.5237761 44.7488701,55.5266079 C47.350565,55.5237761 50.1867232,55.583244 52.8985876,55.5011217 C54.429661,55.4869627 56.1471751,55.67103 57.830791,55.5917395 C58.1387006,55.5634214 57.8929379,55.5237761 58.1415254,55.5039535 C58.5652542,55.5124489 58.1387006,55.5634214 58.3025424,55.5917395 C59.130226,55.5124489 60.2177966,55.6143939 61.2573446,55.6200575 C61.3788136,55.5860759 61.669774,55.5775804 61.5737288,55.5266079 C62.7234463,55.6681982 64.2997175,55.4954581 65.4805085,55.6002349 C65.0680791,55.4218311 66.15,55.3057271 66.5596045,55.2689136 C66.7940678,55.2774091 66.850565,55.5237761 66.7799435,55.554926 C67.6612994,55.5379352 68.1189266,55.5351034 69.1725989,55.5917395 C69.6612994,55.5719168 69.7940678,55.4784672 70.3788136,55.5096171 C70.7432203,55.6313847 71.6019774,55.5181125 72.1754237,55.5634214 C72.0313559,55.4614764 73.1951977,55.1018371 73.7658192,55.1499778 L73.1556497,55.5719168 C74.9833333,55.4897945 77.2742938,55.3963449 79.4155367,55.2236048 L79.9127119,55.5775804 C82.1161017,55.4869627 84.2855932,55.6030667 86.4127119,55.4473174 C86.9833333,55.4954581 87.9014124,55.5266079 88.4607345,55.5294397 C89.2375706,55.4614764 88.9042373,55.2066139 89.429661,55.0905099 C89.7234463,55.0848463 90.5031073,55.4133357 90.6132768,55.4473174 C91.5850282,55.4756354 92.4437853,55.3255498 93.2234463,55.1924549 L93.3251412,55.5351034 C94.0963277,55.46714 95.2149718,55.3821859 96.0850282,55.46714 C96.3279661,55.4048403 97.0680791,55.2434274 96.6782486,55.1584732 C97.0228814,55.1443142 97.0257062,55.4161675 97.3731638,55.3453724 L97.0454802,55.4473174 C98.9974576,55.4841309 100.65,55.4331584 102.534181,55.3878495 C103.079379,55.5152807 102.037006,55.0480328 103.104802,55.1216598 C103.734746,55.0536964 107.003107,55.2604182 107.466384,55.1046689 L107.616102,55.4076721 C108.455085,55.4218311 109.587853,55.4246629 110.686723,55.4699718 C111.325141,55.4897945 111.327966,55.3850177 111.833616,55.351036 L111.861864,55.4218311 C112.375989,55.3821859 112.068079,55.2236048 112.25452,55.1499778 L112.95791,55.0197148 C113.237571,55.0395374 113.960734,55.0791827 114.319492,55.1216598 C113.907062,55.1584732 112.909887,55.3623632 112.633051,55.4614764 C113.311017,55.4926263 114.000282,55.2264366 114.418362,55.3397088 C114.966384,55.3680268 115.392938,55.4303266 115.477684,55.3482042 C115.525706,55.3736904 115.802542,55.3963449 115.542655,55.4303266 C115.966384,55.4274947 116.237571,55.4218311 116.494633,55.3878495 C116.415537,55.3850177 116.299718,55.3736904 116.206497,55.3765222 C116.271469,55.351036 116.35904,55.2943999 116.45226,55.2321002 C116.401412,55.234932 116.339266,55.234932 116.246045,55.2292684 L116.45791,55.2292684 C116.621751,55.1103325 116.788418,54.9630787 116.796893,54.914938 L118.234746,54.9602468 C117.559605,55.0112193 116.802542,55.336877 117.099153,55.3793541 L118.028531,55.234932 L121.04548,55.249091 L121.096328,48.2233816 C121.206497,49.7808746 121.231921,51.5705757 121.553955,52.949665 C121.635876,54.1333596 122.226271,54.6062712 122.226271,54.6062712 C122.164124,53.1705458 121.901412,51.6980069 121.963559,50.3500675 L121.963559,50.3500675 Z" id="Fill-7" fill="#90B3D7"></path>
            </g>
        </g>
    </g>
</svg>