<svg version="1.1" xmlns="http://www.w3.org/2000/svg" xmlns:xlink="http://www.w3.org/1999/xlink"  width="49px" height="49px" viewBox="0 0 49 49">
	<path d="M17.4,22.2h2.2V9.7h-2.2V22.2z M29.9,39.3H32V26.8h-2.2C29.9,26.8,29.9,39.3,29.9,39.3z M24.5,46.8c-12.3,0-22.3-10-22.3-22.3S12.1,2.2,24.5,2.2c12.3,0,22.3,10,22.3,22.3S36.8,46.8,24.5,46.8 M24.5,0C11,0,0,11,0,24.5S11,49,24.5,49S49,38,49,24.5S38,0,24.5,0 M20.6,30.7c-0.3,0-0.7,0-1,0.1l2.5-4.1h-2.6L17.1,31c-1.1,1.8-1.4,3-1.4,4.1c0,2.5,2.1,4.5,4.7,4.5c2.5,0,4.7-2.1,4.7-4.5C25,32.3,22.8,30.7,20.6,30.7z M20.3,37.3c-1.4,0-2.5-1.1-2.5-2.4c0-1.4,1.1-2.5,2.5-2.5s2.5,1.1,2.5,2.5C22.8,36.4,21.7,37.3,20.3,37.3z M29.1,9.4c-2.5,0-4.7,2.1-4.7,4.5c0,2.7,2.1,4.3,4.4,4.3c0.3,0,0.7,0,1-0.1l-2.5,4.1h2.5l2.5-4.2c1.1-1.8,1.4-3,1.4-4.1C33.7,11.5,31.7,9.4,29.1,9.4z M29.1,16.4c-1.4,0-2.5-1.1-2.5-2.5c0-1.3,1.1-2.4,2.5-2.4c1.4,0,2.5,1.1,2.5,2.4C31.5,15.3,30.5,16.4,29.1,16.4z"/>
</svg>
